<svg width="67" height="58" viewBox="0 0 67 58" fill="none" xmlns="http://www.w3.org/2000/svg">
<g clip-path="url(#clip0_1_2)">
<path d="M46.557 21.11L34.017 13.87C33.8627 13.7808 33.6877 13.7339 33.5095 13.7339C33.3313 13.7339 33.1563 13.7808 33.002 13.87L20.462 21.11C20.3078 21.1989 20.1796 21.3269 20.0905 21.481C20.0013 21.6351 19.9542 21.8099 19.954 21.988V36.468C19.954 36.83 20.148 37.165 20.462 37.347L33.002 44.587C33.316 44.768 33.702 44.768 34.017 44.587L46.557 37.347C46.871 37.166 47.064 36.831 47.064 36.468V21.988C47.064 21.625 46.871 21.291 46.557 21.109V21.11Z" fill="#8080F2"/>
<path d="M0.903997 27.705L15.888 1.638C16.432 0.695 17.438 0 18.526 0H48.493C49.582 0 50.587 0.695 51.132 1.638L66.115 27.648C66.3823 28.1162 66.5229 28.6459 66.5229 29.185C66.5229 29.7241 66.3823 30.2538 66.115 30.722L51.132 56.576C50.587 57.518 49.582 58 48.493 58H18.526C17.438 58 16.432 57.533 15.888 56.59L0.904997 30.694C0.637576 30.2412 0.496513 29.7249 0.496513 29.199C0.496513 28.6731 0.637576 28.1568 0.904997 27.704L0.903997 27.705ZM13.311 40.239C13.311 40.623 13.542 40.977 13.874 41.169L32.96 52.18C33.292 52.372 33.708 52.372 34.04 52.18L53.14 41.169C53.472 40.977 53.704 40.623 53.704 40.239V18.216C53.704 17.833 53.475 17.478 53.144 17.286L34.057 6.277C33.8928 6.18278 33.7068 6.13321 33.5175 6.13321C33.3282 6.13321 33.1422 6.18278 32.978 6.277L13.876 17.287C13.544 17.479 13.31 17.834 13.31 18.217V40.24L13.311 40.239Z" fill="#4B32C3"/>
</g>
<defs>
<clipPath id="clip0_1_2">
<rect width="67" height="58" fill="white"/>
</clipPath>
</defs>
</svg>
